<svg width="512" height="512" viewBox="0 0 512 512" fill="none" xmlns="http://www.w3.org/2000/svg">
<path fill-rule="evenodd" clip-rule="evenodd" d="M391.745 391.784C357.001 426.518 309.009 448 256 448C149.961 448 64 362.039 64 256C64 149.961 149.961 64 256 64C309.029 64 357.037 85.4984 391.784 120.255L437.039 75.0001C390.71 28.6618 326.702 0 256 0C114.615 0 0 114.615 0 256C0 397.385 114.615 512 256 512C326.683 512 390.675 483.354 437 437.039L391.745 391.784Z" fill="#212121"/>
<path fill-rule="evenodd" clip-rule="evenodd" d="M301.235 301.274C289.655 312.845 273.663 320 256 320C220.654 320 192 291.346 192 256C192 220.654 220.654 192 256 192C273.683 192 289.691 199.171 301.274 210.765L346.529 165.51C323.364 142.335 291.356 128 256 128C185.308 128 128 185.308 128 256C128 326.692 185.308 384 256 384C291.336 384 323.328 369.681 346.49 346.529L301.235 301.274Z" fill="#212121"/>
<circle cx="480" cy="256" r="32" fill="#00FF75"/>
<circle cx="458" cy="352" r="32" fill="#FF00FF"/>
<circle cx="458" cy="160" r="32" fill="#00D1FF"/>
</svg>
