<svg width="512" height="512" viewBox="0 0 512 512" fill="none" xmlns="http://www.w3.org/2000/svg">
<rect width="512" height="512" rx="256" fill="#212121"/>
<path fill-rule="evenodd" clip-rule="evenodd" d="M365.232 365.264C337.274 393.214 298.656 410.5 256 410.5C170.672 410.5 101.5 341.328 101.5 256C101.5 170.672 170.672 101.5 256 101.5C298.672 101.5 337.304 118.8 365.264 146.768L401.68 110.352C364.4 73.064 312.894 50 256 50C142.229 50 50 142.229 50 256C50 369.771 142.229 462 256 462C312.877 462 364.371 438.949 401.648 401.68L365.232 365.264Z" fill="white"/>
<path fill-rule="evenodd" clip-rule="evenodd" d="M292.4 292.432C283.082 301.742 270.213 307.5 256 307.5C227.557 307.5 204.5 284.443 204.5 256C204.5 227.557 227.557 204.5 256 204.5C270.23 204.5 283.111 210.271 292.432 219.6L328.848 183.184C310.207 164.535 284.451 153 256 153C199.115 153 153 199.115 153 256C153 312.885 199.115 359 256 359C284.434 359 310.178 347.478 328.816 328.848L292.4 292.432Z" fill="white"/>
<circle cx="436.25" cy="256" r="25.75" fill="#00FF75"/>
<circle cx="418.547" cy="333.25" r="25.75" fill="#FF00FF"/>
<circle cx="418.547" cy="178.75" r="25.75" fill="#00D1FF"/>
</svg>
