<svg width="120" height="120" viewBox="0 0 120 120" fill="none" xmlns="http://www.w3.org/2000/svg">
  <circle cx="60" cy="60" r="60" fill="#212121"/>
  <g clip-path="url(#clip0_9588_103667)">
    <path
      d="M86.3901 72.8425C86.1698 75.3231 85.0368 77.6332 83.2109 79.3242C81.3589 81.0795 78.6527 81.9558 75.0922 81.9534C71.6927 81.9534 69.0124 81.103 67.0515 79.4023C66.1007 78.6002 65.3425 77.594 64.8333 76.4584C64.3241 75.3228 64.0769 74.0869 64.11 72.8425C64.11 70.7477 64.6856 69.0457 65.837 67.7367C67.0157 66.4121 68.4961 65.3916 70.1526 64.7618C72.4376 63.903 74.7672 63.1681 77.1312 62.5603C80.0866 61.8347 82.984 60.89 85.7996 59.7341C88.0091 58.7636 89.9288 57.2348 91.3705 55.2977C92.9106 53.2821 93.6818 50.5724 93.6843 47.1686C93.7346 44.355 92.9416 41.5908 91.4077 39.2329C89.8301 36.8782 87.6121 35.0251 85.0159 33.8928C82.2725 32.6359 79.1218 32.0074 75.5639 32.0074C70.4386 32.0074 66.2418 33.2904 62.9735 35.8563C62.0565 36.5781 61.2264 37.4042 60.5 38.3181C59.7722 37.4042 58.9409 36.5781 58.0228 35.8563C54.7545 33.2953 50.5577 32.0124 45.4324 32.0074C42.1783 31.9406 38.9484 32.5813 35.9655 33.8854C33.3693 35.0177 31.1513 36.8707 29.5738 39.2254C28.0399 41.5834 27.2469 44.3475 27.2971 47.1611C27.2971 50.5625 28.0684 53.2722 29.6109 55.2902C31.0544 57.2257 32.9736 58.7541 35.1819 59.7266C37.9974 60.8825 40.8948 61.8272 43.8503 62.5529C46.2153 63.1613 48.546 63.8962 50.8325 64.7543C52.4874 65.3852 53.9664 66.4056 55.1445 67.7293C56.2958 69.0383 56.8715 70.7402 56.8715 72.8351C56.9086 74.0808 56.6648 75.3188 56.1581 76.4571C55.6514 77.5954 54.8949 78.6047 53.9449 79.4098C51.9839 81.1129 49.3036 81.9633 45.9041 81.9608C42.3461 81.9608 39.6399 81.0844 37.7854 79.3317C35.9609 77.64 34.8292 75.33 34.6099 72.85H27C27.0013 75.6782 27.8785 78.4365 29.5106 80.7448C31.2248 83.0977 33.5424 84.9428 36.2181 86.0848C39.2731 87.4093 42.5755 88.0648 45.9041 88.0074C49.6701 88.0074 52.9384 87.2748 55.709 85.8097C57.5206 84.8754 59.1448 83.6147 60.5 82.091C61.8539 83.6146 63.4768 84.8753 65.2873 85.8097C68.0629 87.2773 71.3312 88.0099 75.0922 88.0074C78.422 88.0643 81.7255 87.4088 84.7819 86.0848C87.4564 84.9407 89.7735 83.096 91.4894 80.7448C93.1205 78.4362 93.9963 75.6778 93.9963 72.85L86.3901 72.8425ZM56.1027 59.8271C53.273 58.6399 50.3625 57.6557 47.3934 56.8818C44.4222 56.0464 42.1084 55.3026 40.452 54.6506C38.861 54.0349 37.4373 53.0527 36.2961 51.7835C35.172 50.5266 34.6099 48.9027 34.6099 46.912C34.6099 44.1378 35.5508 41.9785 37.4325 40.434C39.3143 38.8895 41.7457 38.1222 44.7268 38.1321C47.9183 38.1321 50.481 38.9304 52.4147 40.527C54.3484 42.1235 55.4465 43.9693 55.709 46.0641H65.3059C65.5708 43.9693 66.6689 42.1235 68.6002 40.527C70.5314 38.9304 73.0941 38.1321 76.2881 38.1321C79.2593 38.1321 81.6907 38.9044 83.5823 40.4489C85.474 41.9934 86.4161 44.1527 86.4087 46.9269C86.4087 48.9102 85.8466 50.534 84.7225 51.7984C83.5799 53.0677 82.1549 54.0499 80.5629 54.6655C78.9188 55.32 76.605 56.0637 73.6215 56.8967C70.6533 57.6699 67.7441 58.6541 64.9159 59.8419C63.269 60.5678 61.7763 61.6029 60.5186 62.8913C59.2545 61.6028 57.7555 60.569 56.1027 59.8457V59.8271Z"
      fill="white"/>
  </g>
  <defs>
    <clipPath id="clip0_9588_103667">
      <rect width="67" height="56" fill="white" transform="translate(27 32)"/>
    </clipPath>
  </defs>
</svg>
