<svg width="140" height="140" viewBox="0 0 140 140" fill="none" xmlns="http://www.w3.org/2000/svg">
<path d="M100.739 47.6357L108.544 80.2175C109.399 83.7888 106.692 87.2208 103.02 87.2208H32.6328C25.9277 87.2208 19.9362 83.0337 17.6312 76.7372L16.9919 74.9909C16.6527 74.0644 17.3386 73.0827 18.3255 73.0827H64.2936C64.838 73.0827 65.2793 72.6414 65.2793 72.0971C65.2793 68.0144 61.9697 64.7046 57.8868 64.7046H24.3903C17.6852 64.7046 11.6937 60.5176 9.38874 54.2212L8.81333 52.6493C8.47413 51.7228 9.16007 50.7413 10.1468 50.7413H53.8211C54.3654 50.7413 54.8067 50.2999 54.8067 49.7555C54.8067 45.6728 51.497 42.3631 47.4143 42.3631H16.2117C9.50662 42.3631 3.51507 38.1761 1.21013 31.8797L0.698622 30.4824C0.359423 29.5557 1.04536 28.5742 2.03209 28.5742H76.5727C88.0672 28.5742 98.0618 36.4574 100.739 47.6357Z" fill="url(#paint0_linear_613_19635)"/>
<path d="M128.373 57.3336L139.318 104.34C140.148 107.902 137.443 111.308 133.786 111.308H60.3715C53.4181 111.308 47.2634 106.81 45.1512 100.185L44.4073 97.8523C43.9693 96.4783 44.9946 95.0752 46.4367 95.0752H113.474C117.152 95.0752 119.86 91.6333 118.995 88.0586L109.203 47.6126C108.878 46.2721 109.894 44.9813 111.273 44.9813H112.814C120.241 44.9813 126.688 50.0999 128.373 57.3336Z" fill="url(#paint1_linear_613_19635)"/>
<defs>
<linearGradient id="paint0_linear_613_19635" x1="54.6322" y1="28.5742" x2="54.6322" y2="87.2208" gradientUnits="userSpaceOnUse">
<stop stop-color="#FFC803"/>
<stop offset="1" stop-color="#FFA903"/>
</linearGradient>
<linearGradient id="paint1_linear_613_19635" x1="91.7528" y1="44.9813" x2="91.7528" y2="111.308" gradientUnits="userSpaceOnUse">
<stop stop-color="#FF7421"/>
<stop offset="1" stop-color="#EC5901"/>
</linearGradient>
</defs>
</svg>
