
<svg width="120" height="26" viewBox="0 0 120 26" fill="none" xmlns="http://www.w3.org/2000/svg">
  <path d="M86.5237 15.3974C89.3697 14.15 90.9927 11.794 90.9927 8.26127C90.9927 4.84686 89.1536 2.41125 86.3076 1.44611C84.8662 0.947611 82.6294 0.733643 80.2546 0.733643H72.1947C72.1338 0.733643 72.0753 0.757624 72.0322 0.800313C71.9891 0.843001 71.9648 0.900899 71.9648 0.96127V7.8356C71.9648 7.8356 71.9648 11.901 76.0707 11.901C76.0707 11.901 71.9648 11.901 71.9648 15.9664V25.0897C71.9648 25.1501 71.9891 25.208 72.0322 25.2507C72.0753 25.2934 72.1338 25.3174 72.1947 25.3174H77.358C77.419 25.3174 77.4775 25.2934 77.5206 25.2507C77.5637 25.208 77.5879 25.1501 77.5879 25.0897V16.4695H81.1489L86.2363 25.2035C86.2564 25.2379 86.2852 25.2666 86.3199 25.2865C86.3545 25.3065 86.3939 25.3171 86.434 25.3174H92.0985C92.1387 25.3171 92.1782 25.3064 92.2129 25.2864C92.2477 25.2663 92.2765 25.2375 92.2965 25.203C92.3165 25.1684 92.327 25.1292 92.327 25.0894C92.3269 25.0496 92.3163 25.0104 92.2962 24.9759L86.5237 15.3974ZM83.7121 11.4321C82.9213 11.7895 81.696 11.8874 80.0339 11.8874H77.5879V5.51381H79.9305C81.2638 5.51381 82.5604 5.65721 83.4248 5.94402C84.6501 6.37196 85.2984 7.26426 85.2984 8.61864C85.2984 10.0459 84.8271 10.9017 83.7121 11.4321Z" fill="white"/>
  <path d="M47.6631 0.96127V5.46829C47.6631 5.52866 47.6873 5.58655 47.7304 5.62924C47.7735 5.67193 47.832 5.69591 47.893 5.69591H58.9046C54.7988 5.69591 54.7988 9.76133 54.7988 9.76133V25.0897C54.7988 25.1501 54.823 25.208 54.8662 25.2507C54.9093 25.2934 54.9677 25.3174 55.0287 25.3174H60.1575C60.2185 25.3174 60.277 25.2934 60.3201 25.2507C60.3632 25.208 60.3874 25.1501 60.3874 25.0897V5.69364H67.514C67.5749 5.69364 67.6334 5.66965 67.6765 5.62697C67.7196 5.58428 67.7438 5.52638 67.7438 5.46601V0.96127C67.7438 0.900899 67.7196 0.843001 67.6765 0.800313C67.6334 0.757624 67.5749 0.733643 67.514 0.733643H47.893C47.832 0.733643 47.7735 0.757624 47.7304 0.800313C47.6873 0.843001 47.6631 0.900899 47.6631 0.96127Z" fill="white"/>
  <path d="M38.3003 10.6803L34.9968 9.67415C32.5623 8.95485 32.091 8.26969 32.091 7.22716C32.091 5.93196 32.8175 4.88943 35.7692 4.88943C38.2773 4.88943 41.6912 5.8614 43.6153 7.62095H43.7602V2.11921C43.7605 2.08594 43.7535 2.05302 43.7396 2.02273C43.7257 1.99245 43.7052 1.96555 43.6797 1.94393C42.2797 0.8058 38.8084 0 36.3509 0C29.7048 0 26.3645 3.30742 26.3645 7.58681C26.3645 11.1833 28.2519 13.6644 32.5715 14.8868L35.6957 15.7859C38.2015 16.4688 39.3279 17.0811 39.3279 18.4469C39.3279 20.318 37.875 20.821 35.4037 20.821C33.0313 20.821 29.668 20.0403 27.1392 18.1715C27.0992 18.1431 27.0511 18.1282 27.0019 18.129C26.9527 18.1297 26.9051 18.146 26.8659 18.1756C26.8268 18.2052 26.7983 18.2463 26.7846 18.2931C26.7709 18.3399 26.7727 18.3898 26.7898 18.4355L29.2795 24.7726C29.2917 24.8041 29.3109 24.8324 29.3355 24.8557C29.3602 24.8789 29.3897 24.8964 29.422 24.9069C31.2586 25.5073 33.18 25.8146 35.1141 25.8175C42.3785 25.8175 45.0659 22.0047 45.0659 18.0144C45.0567 14.4566 43.459 12.2623 38.3003 10.6803Z" fill="white"/>
  <path d="M24.5275 25.0104L15.0492 0.881932C15.0322 0.839578 15.0027 0.803264 14.9646 0.777696C14.9265 0.752127 14.8815 0.738481 14.8354 0.738525H9.70663C9.66059 0.738481 9.6156 0.752127 9.57748 0.777696C9.53936 0.803264 9.50987 0.839578 9.49284 0.881932L0.0145423 25.0104C0.00159432 25.0447 -0.00280008 25.0816 0.00173174 25.118C0.00626355 25.1543 0.0195882 25.189 0.0405738 25.2192C0.0615594 25.2494 0.0895859 25.2741 0.122274 25.2912C0.154963 25.3084 0.191348 25.3174 0.228338 25.3177H5.6491C5.69502 25.3171 5.7397 25.3029 5.7774 25.2769C5.81509 25.251 5.84407 25.2144 5.8606 25.172L7.89511 19.8933V19.8797L12.1434 7.83366L14.8814 15.1496C9.67215 15.1496 8.00086 19.5883 7.89511 19.8797V19.8933H16.4722L18.5068 25.172C18.5233 25.2144 18.5523 25.251 18.59 25.2769C18.6277 25.3029 18.6723 25.3171 18.7183 25.3177H24.3183C24.3549 25.3167 24.3908 25.3071 24.4229 25.2897C24.455 25.2722 24.4824 25.2474 24.5028 25.2174C24.5233 25.1873 24.5362 25.1528 24.5405 25.1168C24.5448 25.0808 24.5404 25.0443 24.5275 25.0104Z" fill="white"/>
  <path d="M106.896 0.0505371C104.305 0.0505371 101.771 0.811492 99.6164 2.23717C97.4615 3.66286 95.782 5.68923 94.7902 8.06006C93.7984 10.4309 93.5389 13.0397 94.0445 15.5565C94.5501 18.0734 95.7981 20.3853 97.6307 22.1998C99.4633 24.0144 101.798 25.2501 104.34 25.7507C106.882 26.2513 109.517 25.9944 111.911 25.0124C114.305 24.0303 116.352 22.3673 117.792 20.2337C119.231 18.1 120 15.5914 120 13.0253C120 9.58416 118.619 6.28399 116.162 3.85075C113.705 1.41752 110.372 0.0505371 106.896 0.0505371ZM106.896 23.8353C106.896 20.9683 105.746 18.2187 103.699 16.1915C101.651 14.1642 98.8744 13.0253 95.979 13.0253C98.8744 13.0253 101.651 11.8864 103.699 9.8591C105.746 7.83183 106.896 5.08226 106.896 2.21527C106.896 5.08226 108.047 7.83183 110.094 9.8591C112.141 11.8864 114.918 13.0253 117.814 13.0253C114.918 13.0253 112.141 14.1642 110.094 16.1915C108.047 18.2187 106.896 20.9683 106.896 23.8353Z" fill="white"/>
</svg>
