<svg width="540" height="540" viewBox="0 0 540 540" fill="none" xmlns="http://www.w3.org/2000/svg">
<path fill-rule="evenodd" clip-rule="evenodd" d="M413.169 413.21C376.525 449.843 325.908 472.5 270 472.5C158.162 472.5 67.5 381.838 67.5 270C67.5 158.162 158.162 67.5 270 67.5C325.929 67.5 376.563 90.1741 413.21 126.831L460.939 79.1018C412.077 30.2293 344.569 0 270 0C120.883 0 0 120.883 0 270C0 419.117 120.883 540 270 540C344.548 540 412.039 509.788 460.898 460.939L413.169 413.21Z" fill="#212121"/>
<path fill-rule="evenodd" clip-rule="evenodd" d="M317.709 317.75C305.496 329.953 288.629 337.5 270 337.5C232.721 337.5 202.5 307.279 202.5 270C202.5 232.721 232.721 202.5 270 202.5C288.65 202.5 305.534 210.064 317.75 222.291L365.48 174.561C341.048 150.119 307.29 135 270 135C195.442 135 135 195.442 135 270C135 344.558 195.442 405 270 405C307.269 405 341.01 389.898 365.439 365.48L317.709 317.75Z" fill="#212121"/>
<circle cx="506.25" cy="270" r="33.75" fill="#00FF75"/>
<circle cx="483.047" cy="371.25" r="33.75" fill="#FF00FF"/>
<circle cx="483.047" cy="168.75" r="33.75" fill="#00D1FF"/>
</svg>
