<svg width="1238" height="256" viewBox="0 0 1238 256" fill="none" xmlns="http://www.w3.org/2000/svg">
<path d="M387.04 197C374.434 197 363.056 194.135 352.906 188.405C342.756 182.512 334.734 174.572 328.84 164.585C322.947 154.435 320 143.139 320 130.697C320 118.091 322.947 106.795 328.84 96.809C334.734 86.8226 342.756 78.8827 352.906 72.9891C363.056 67.0955 374.434 64.1487 387.04 64.1487C397.19 64.1487 406.849 66.1132 416.016 70.0423C425.348 73.9714 433.37 79.6194 440.082 86.9864L419.454 108.842C414.707 103.603 409.714 99.7558 404.475 97.3001C399.4 94.6808 393.834 93.3711 387.776 93.3711C381.228 93.3711 375.334 95.0082 370.095 98.2824C365.02 101.557 360.928 105.977 357.817 111.543C354.87 117.109 353.397 123.494 353.397 130.697C353.397 137.573 354.87 143.876 357.817 149.606C360.928 155.172 365.184 159.592 370.587 162.866C375.989 165.977 381.965 167.532 388.513 167.532C394.243 167.532 399.563 166.386 404.475 164.094C409.55 161.638 414.379 158.037 418.963 153.289L439.1 174.408C432.551 181.447 424.693 187.014 415.525 191.106C406.357 195.035 396.862 197 387.04 197Z" fill="#212121"/>
<path d="M456.59 194.544V22.648L490.233 17V194.544H456.59Z" fill="#212121"/>
<path d="M566.147 197C556.325 197 547.566 194.872 539.872 190.615C532.341 186.195 526.366 180.138 521.946 172.443C517.689 164.749 515.561 155.909 515.561 145.922V66.6044H549.203V141.011C549.203 149.196 551.577 155.745 556.325 160.656C561.236 165.568 567.785 168.023 575.97 168.023C581.536 168.023 586.529 166.959 590.95 164.831C595.534 162.539 599.299 159.347 602.246 155.254V66.6044H635.888V194.544H602.246V184.231C592.423 192.744 580.39 197 566.147 197Z" fill="#212121"/>
<path d="M662.108 194.544V22.648L695.751 17V76.9181C705.901 68.8963 717.852 64.8854 731.603 64.8854C743.718 64.8854 754.687 67.8322 764.509 73.7258C774.332 79.6194 782.108 87.5593 787.838 97.5457C793.732 107.368 796.678 118.419 796.678 130.697C796.678 142.975 793.732 154.108 787.838 164.094C781.944 173.917 774.004 181.775 764.018 187.668C754.032 193.398 742.899 196.263 730.621 196.263C724.236 196.263 718.015 195.363 711.958 193.562C705.901 191.761 700.335 189.142 695.26 185.704V194.544H662.108ZM726.201 167.778C733.241 167.778 739.543 166.141 745.11 162.866C750.839 159.592 755.341 155.172 758.616 149.606C761.89 144.04 763.527 137.737 763.527 130.697C763.527 123.658 761.89 117.355 758.616 111.789C755.341 106.059 750.839 101.638 745.11 98.528C739.543 95.2537 733.241 93.6166 726.201 93.6166C719.98 93.6166 714.25 94.6808 709.011 96.809C703.936 98.7735 699.516 101.802 695.751 105.895V155.745C699.352 159.51 703.773 162.457 709.011 164.585C714.414 166.714 720.144 167.778 726.201 167.778Z" fill="#212121"/>
<path d="M879.645 197C866.876 197 855.252 194.053 844.775 188.16C834.461 182.266 826.276 174.326 820.218 164.34C814.161 154.353 811.132 143.139 811.132 130.697C811.132 118.255 813.997 107.041 819.727 97.0546C825.621 87.0682 833.561 79.1282 843.547 73.2347C853.533 67.3411 864.666 64.3943 876.944 64.3943C889.222 64.3943 900.109 67.4229 909.604 73.4802C919.1 79.5375 926.548 87.7231 931.951 98.0368C937.517 108.351 940.3 120.056 940.3 133.153V141.993H845.512C846.985 147.068 849.359 151.652 852.633 155.745C856.071 159.838 860.246 163.03 865.157 165.322C870.232 167.614 875.634 168.76 881.364 168.76C887.094 168.76 892.333 167.859 897.08 166.059C901.992 164.258 906.166 161.72 909.604 158.446L931.705 178.583C923.847 184.967 915.743 189.633 907.394 192.58C899.209 195.527 889.959 197 879.645 197ZM845.02 117.928H907.149C906.003 112.853 903.874 108.432 900.764 104.667C897.817 100.738 894.216 97.7094 889.959 95.5812C885.866 93.2892 881.282 92.1432 876.207 92.1432C870.969 92.1432 866.221 93.2074 861.964 95.3356C857.708 97.4638 854.106 100.492 851.16 104.422C848.377 108.187 846.33 112.689 845.02 117.928Z" fill="#212121"/>
<path d="M1024.49 197C1011.72 197 1000.1 194.053 989.621 188.16C979.307 182.266 971.121 174.326 965.064 164.34C959.007 154.353 955.978 143.139 955.978 130.697C955.978 118.255 958.843 107.041 964.573 97.0546C970.466 87.0682 978.406 79.1282 988.393 73.2347C998.379 67.3411 1009.51 64.3943 1021.79 64.3943C1034.07 64.3943 1044.95 67.4229 1054.45 73.4802C1063.95 79.5375 1071.39 87.7231 1076.8 98.0368C1082.36 108.351 1085.15 120.056 1085.15 133.153V141.993H990.357C991.831 147.068 994.204 151.652 997.479 155.745C1000.92 159.838 1005.09 163.03 1010 165.322C1015.08 167.614 1020.48 168.76 1026.21 168.76C1031.94 168.76 1037.18 167.859 1041.93 166.059C1046.84 164.258 1051.01 161.72 1054.45 158.446L1076.55 178.583C1068.69 184.967 1060.59 189.633 1052.24 192.58C1044.05 195.527 1034.8 197 1024.49 197ZM989.866 117.928H1051.99C1050.85 112.853 1048.72 108.432 1045.61 104.667C1042.66 100.738 1039.06 97.7094 1034.8 95.5812C1030.71 93.2892 1026.13 92.1432 1021.05 92.1432C1015.81 92.1432 1011.07 93.2074 1006.81 95.3356C1002.55 97.4638 998.952 100.492 996.005 104.422C993.222 108.187 991.176 112.689 989.866 117.928Z" fill="#212121"/>
<path d="M1169.09 197C1156.32 197 1144.78 194.053 1134.47 188.16C1124.15 182.266 1115.97 174.326 1109.91 164.34C1103.85 154.353 1100.82 143.139 1100.82 130.697C1100.82 118.255 1103.77 107.041 1109.66 97.0546C1115.72 86.9045 1123.91 78.8827 1134.22 72.9891C1144.7 67.0955 1156.32 64.1487 1169.09 64.1487C1181.86 64.1487 1193.4 67.0955 1203.72 72.9891C1214.19 78.8827 1222.38 86.9045 1228.27 97.0546C1234.33 107.041 1237.36 118.255 1237.36 130.697C1237.36 143.139 1234.33 154.353 1228.27 164.34C1222.38 174.326 1214.28 182.266 1203.96 188.16C1193.65 194.053 1182.02 197 1169.09 197ZM1169.09 167.778C1175.8 167.778 1181.78 166.141 1187.02 162.866C1192.42 159.592 1196.68 155.172 1199.79 149.606C1203.06 143.876 1204.7 137.573 1204.7 130.697C1204.7 123.658 1203.06 117.355 1199.79 111.789C1196.68 106.222 1192.42 101.802 1187.02 98.528C1181.78 95.09 1175.8 93.3711 1169.09 93.3711C1162.54 93.3711 1156.57 95.09 1151.16 98.528C1145.76 101.802 1141.51 106.222 1138.4 111.789C1135.28 117.355 1133.73 123.658 1133.73 130.697C1133.73 137.573 1135.28 143.876 1138.4 149.606C1141.51 155.172 1145.76 159.592 1151.16 162.866C1156.57 166.141 1162.54 167.778 1169.09 167.778Z" fill="#212121"/>
<path fill-rule="evenodd" clip-rule="evenodd" d="M195.873 195.892C178.501 213.259 154.505 224 128 224C74.9807 224 32 181.019 32 128C32 74.9807 74.9807 32 128 32C154.515 32 178.519 42.7491 195.892 60.1274L218.519 37.5C195.355 14.3309 163.351 0 128 0C57.3076 0 0 57.3076 0 128C0 198.692 57.3076 256 128 256C163.341 256 195.337 241.677 218.5 218.519L195.873 195.892Z" fill="#212121"/>
<path fill-rule="evenodd" clip-rule="evenodd" d="M150.618 150.637C144.828 156.422 136.832 160 128 160C110.327 160 96 145.673 96 128C96 110.327 110.327 96 128 96C136.841 96 144.845 99.5857 150.637 105.382L173.264 82.7548C161.682 71.1674 145.678 64 128 64C92.6538 64 64 92.6538 64 128C64 163.346 92.6538 192 128 192C145.668 192 161.664 184.841 173.245 173.264L150.618 150.637Z" fill="#212121"/>
<circle cx="240" cy="128" r="16" fill="#00FF75"/>
<circle cx="229" cy="176" r="16" fill="#FF00FF"/>
<circle cx="229" cy="80" r="16" fill="#00D1FF"/>
</svg>
